HIERARCHY
ROOT hip
{
	OFFSET 0.000000 0.000000 0.000000 
	CHANNELS 6 Xposition Yposition Zposition Xrotation Zrotation Yrotation
	JOINT abdomen
	{
		OFFSET 0.000000 3.402643 0.000000 
		CHANNELS 3 Xrotation Zrotation Yrotation
		JOINT chest
		{
			OFFSET 0.000000 8.438565 -0.680529 
			CHANNELS 3 Xrotation Zrotation Yrotation
			JOINT neck
			{
				OFFSET 0.000000 10.207942 -0.272212 
				CHANNELS 3 Xrotation Zrotation Yrotation
				JOINT head
				{
					OFFSET 0.000000 3.130431 0.000000 
					CHANNELS 3 Xrotation Zrotation Yrotation
					End Site
					{
						OFFSET 0.000000 3.130435 0.000000 
					}
				}
			}
			JOINT lCollar
			{
				OFFSET 3.470700 6.669187 -0.816635 
				CHANNELS 3 Yrotation Zrotation Xrotation
				JOINT lShldr
				{
					OFFSET 3.198488 0.000000 0.000000 
					CHANNELS 3 Zrotation Yrotation Xrotation
					JOINT lForeArm
					{
						OFFSET 10.139888 0.000000 0.000000 
						CHANNELS 3 Yrotation Zrotation Xrotation
						JOINT lHand
						{
							OFFSET 8.370511 0.000000 0.000000 
							CHANNELS 3 Zrotation Yrotation Xrotation
							End Site
							{
								OFFSET 4.083176 0.000000 0.000000 
							}
						}
					}
				}
			}
			JOINT rCollar
			{
				OFFSET -3.470700 6.669187 -0.816635 
				CHANNELS 3 Yrotation Zrotation Xrotation
				JOINT rShldr
				{
					OFFSET -3.198488 0.000000 0.000000 
					CHANNELS 3 Zrotation Yrotation Xrotation
					JOINT rForeArm
					{
						OFFSET -10.139888 0.000000 0.000000 
						CHANNELS 3 Yrotation Zrotation Xrotation
						JOINT rHand
						{
							OFFSET -8.370511 0.000000 0.000000 
							CHANNELS 3 Zrotation Yrotation Xrotation
							End Site
							{
								OFFSET -4.083176 0.000000 0.000000 
							}
						}
					}
				}
			}
		}
	}
	JOINT lThigh
	{
		OFFSET 5.308129 -1.633274 1.361059 
		CHANNELS 3 Xrotation Zrotation Yrotation
		JOINT lShin
		{
			OFFSET -2.041588 -20.007561 0.000000 
			CHANNELS 3 Xrotation Zrotation Yrotation
			JOINT lFoot
			{
				OFFSET 0.000000 -19.190928 -1.224953 
				CHANNELS 3 Xrotation Yrotation Zrotation
				End Site
				{
					OFFSET 0.000000 -2.449906 4.627600 
				}
			}
		}
	}
	JOINT rThigh
	{
		OFFSET -5.308129 -1.633274 1.361059 
		CHANNELS 3 Xrotation Zrotation Yrotation
		JOINT rShin
		{
			OFFSET 2.041588 -20.007561 0.000000 
			CHANNELS 3 Xrotation Zrotation Yrotation
			JOINT rFoot
			{
				OFFSET 0.000000 -19.190928 -1.224953 
				CHANNELS 3 Xrotation Yrotation Zrotation
				End Site
				{
					OFFSET 0.000000 -2.449906 4.627600 
				}
			}
		}
	}
}
MOTION
Frames: 6
Frame Time: 0.033333
-0.121782 50.109028 -0.392287 -0.107426 0.527343 -0.372083 0.000000 0.000000 0.000000 -4.755921 -0.291960 0.258665 4.521629 -0.267945 0.195946 5.537086 0.224288 -0.080374 -0.095443 9.221692 -3.754148 -4.691618 -0.875869 -16.262461 0.767568 -4.024885 15.193423 1.129540 -3.488337 -3.456501 0.122339 -9.500049 -3.792072 2.051387 -8.307536 -13.984227 -0.235535 7.975167 21.599882 -3.264227 6.722913 -3.646281 7.976450 6.542121 6.576440 -2.342151 -2.428052 10.195584 -3.674099 0.197405 -6.197544 7.132706 -9.504903 -9.885181 -0.203501 3.048663 -5.965563 -4.469191 -0.324153 7.441286 
-0.106679 50.107647 -0.368591 -0.117194 0.605467 -0.382098 0.000000 0.000000 0.000000 -4.726637 -0.321170 0.309758 4.531408 -0.307514 0.222509 5.371060 0.263252 -0.102758 -0.032252 9.050438 -3.728975 -4.596507 -0.944962 -16.413177 0.750232 -3.959058 15.297566 1.138715 -3.477999 -3.457084 0.190881 -9.465431 -3.760320 1.942680 -8.259102 -13.947698 -0.222709 8.035740 21.120438 -3.144766 6.544453 -3.629214 8.010794 6.460818 6.555427 -2.345496 -2.479095 10.236941 -3.710796 0.194648 -6.125421 7.165796 -9.588324 -9.896329 -0.166135 3.005484 -5.904221 -4.512882 -0.297424 7.485332 
-0.084407 50.114555 -0.352925 -0.009766 0.664063 -0.361441 0.000000 0.000000 0.000000 -4.795017 -0.360064 0.362234 4.482978 -0.280436 0.176055 5.390612 0.165755 -0.136258 0.008055 8.999302 -3.796209 -4.566719 -1.052186 -16.401133 0.731214 -3.964707 15.355213 1.049050 -3.454066 -3.451821 0.302962 -9.327282 -3.816820 1.745522 -8.269459 -13.898703 -0.220937 8.080413 20.887280 -2.989920 6.740004 -3.620766 7.925557 6.394264 6.497568 -2.331595 -2.505623 10.275816 -3.752352 0.193199 -6.031644 7.065730 -9.673430 -9.935812 -0.135516 2.989422 -5.911257 -4.552635 -0.307491 7.524345 
-0.061881 50.112667 -0.327051 -0.039065 0.654297 -0.420368 0.000000 0.000000 0.000000 -4.775480 -0.350342 0.429658 4.581874 -0.092770 0.103516 5.244117 -0.214475 -0.104598 -0.110014 9.074950 -3.767160 -4.604560 -0.963815 -16.315895 0.719811 -3.991025 15.248078 1.138715 -3.477999 -3.457084 0.477336 -9.143451 -3.792021 1.609022 -8.298578 -13.950476 -0.223551 8.017641 21.246880 -2.967319 7.005596 -3.619655 8.022261 6.374540 6.503637 -2.376864 -2.512439 10.327794 -3.772790 0.199529 -6.103377 7.095345 -9.712019 -9.961239 -0.087826 2.996252 -5.820354 -4.599846 -0.311392 7.566137 
-0.048669 50.119595 -0.309081 0.029299 0.712891 -0.507326 0.000000 0.000000 0.000000 -4.814559 -0.379516 0.530012 4.602164 -0.097621 0.195012 5.224581 -0.233968 -0.083843 -0.133255 9.183873 -3.794688 -4.809798 -0.974744 -16.365423 0.722717 -3.930841 15.422594 1.187251 -3.631600 -3.460036 0.549952 -9.179190 -3.831321 1.667330 -8.230327 -13.923732 -0.227151 7.977992 21.998800 -3.310479 7.297337 -3.650356 8.013155 6.325800 6.516747 -2.409157 -2.573719 10.400213 -3.803035 0.186815 -6.088106 7.068672 -9.773829 -9.988334 -0.155241 2.980712 -5.726858 -4.572746 -0.305900 7.578472 
-0.033566 50.121861 -0.295464 0.068365 0.732421 -0.555642 0.000000 0.000000 0.000000 -4.843852 -0.369768 0.539147 4.631154 -0.132190 0.236461 5.322243 -0.214492 -0.075594 -0.068674 9.218890 -3.821117 -4.915261 -1.082063 -16.292051 0.710023 -3.990867 15.247506 1.127753 -3.781951 -3.456592 0.601518 -9.232058 -3.843467 1.645844 -7.996505 -13.843060 -0.223737 8.102566 21.590525 -3.197176 7.372899 -3.644866 8.000892 6.295241 6.493156 -2.390966 -2.593412 10.380193 -3.857845 0.203502 -6.071562 7.039830 -9.814092 -10.002919 -0.145863 2.992046 -5.706901 -4.576271 -0.300975 7.601843 
